<?xml version="1.0" encoding="UTF-8"?>
<svg id="Layer_1" xmlns="http://www.w3.org/2000/svg" xmlns:xlink="http://www.w3.org/1999/xlink" version="1.1" viewBox="0 0 28.35 28.35">
  <!-- Generator: Adobe Illustrator 29.2.1, SVG Export Plug-In . SVG Version: 2.1.0 Build 116)  -->
  <defs>
    <style>
      .st0 {
        fill: none;
      }

      .st1 {
        fill: #5a5a5a;
      }

      .st2 {
        fill: #46b971;
      }

      .st3 {
        fill: #075577;
      }

      .st4 {
        clip-path: url(#clippath);
      }
    </style>
    <clipPath id="clippath">
      <rect class="st0" y="0" width="28.35" height="28.35"/>
    </clipPath>
  </defs>
  <g>
    <path class="st1" d="M5.24,24.39s.02,0,.01.02l-.29.62v.39s0,.02-.02.02h-.02s-.02,0-.02-.02v-.39l-.31-.63s0-.02.01-.02h.03s.02,0,.02.01l.27.57h0l.26-.57s0-.01.02-.01h.02Z"/>
    <path class="st1" d="M6.49,25.45c-.24,0-.39-.19-.39-.53s.17-.54.4-.54c.25,0,.39.21.39.53,0,.35-.18.54-.4.54ZM6.5,24.42c-.2,0-.33.21-.33.49,0,.29.11.49.32.49s.33-.2.33-.49-.11-.49-.32-.49Z"/>
    <path class="st1" d="M8.62,24.98c0,.25-.09.46-.37.46-.32,0-.37-.2-.37-.48v-.57s0-.02.02-.02h.03s.02,0,.02.02v.55c0,.23.03.44.31.44s.31-.22.31-.44v-.55s0-.01.01-.01h.04s.01,0,.01.01v.58Z"/>
    <path class="st1" d="M9.71,24.97v.45s0,.01-.01.01h-.04s-.01,0-.01-.01v-1.02s0-.01.01-.01h.2c.21,0,.33.09.33.29,0,.15-.1.26-.23.29l.25.45s0,.02-.01.02h-.04s-.02,0-.02-.01l-.24-.45h-.19ZM9.87,24.92c.15,0,.25-.08.25-.25,0-.18-.11-.24-.29-.24h-.13v.48h.16Z"/>
    <path class="st1" d="M12.76,25.38s.01,0,.01.01v.03s0,.01-.01.01h-.47s-.02,0-.02-.02v-1.01s0-.02.02-.02h.47s.01,0,.01,0v.03s-.01.01-.02.01h-.42v.42h.37s.01,0,.01.01v.03s0,.01-.01.01h-.37v.47h.43Z"/>
    <path class="st1" d="M14.02,24.4s0-.01.02-.01h.03s.01,0,.02.01l.36,1.02s0,.02-.01.02h-.04s-.02,0-.02-.01l-.11-.34h-.42l-.12.34s0,0-.01,0h-.04s-.01,0,0-.02l.37-1.01ZM14.24,25.03l-.19-.56-.2.56h.39Z"/>
    <path class="st1" d="M15.54,25.45c-.07,0-.14-.01-.22-.04-.01,0-.01-.01-.01-.02v-.03s.02-.01.03,0c.06.02.14.04.2.04.12,0,.25-.06.25-.21,0-.11-.07-.18-.16-.22l-.18-.11c-.09-.05-.15-.13-.15-.23,0-.16.13-.25.29-.25.07,0,.15.02.2.04,0,0,.01,0,0,.02v.02s-.02,0-.03,0c-.06-.02-.12-.04-.18-.04-.12,0-.23.06-.23.18,0,.11.06.16.13.2l.16.09c.11.07.2.14.2.28,0,.18-.14.27-.31.27Z"/>
    <path class="st1" d="M17.34,24.39s.02,0,.01.02l-.29.62v.39s0,.02-.02.02h-.02s-.02,0-.02-.02v-.39l-.3-.63s0-.02.01-.02h.03s.02,0,.02.01l.27.57h0l.26-.57s0-.01.02-.01h.02Z"/>
    <path class="st1" d="M20.22,25.42s0,.01-.02.01h-.05s-.01,0-.02-.01l-.22-.94h0l-.23.94s0,.01-.02.01h-.04s-.01,0-.02-.01l-.27-1.02s0-.02.01-.02h.03s.01,0,.02.01l.25.96h0l.24-.96s0-.01.02-.01h.02s.02,0,.02.01l.24.97h0l.25-.96s0-.01.02-.01h.02s.02,0,.01.02l-.27,1.02Z"/>
    <path class="st1" d="M21.65,24.4s0-.01.01-.01h.03s.01,0,.02.01l.36,1.02s0,.02-.01.02h-.04s-.02,0-.02-.01l-.11-.34h-.42l-.12.34s0,0-.01,0h-.04s-.01,0,0-.02l.37-1.01ZM21.87,25.03l-.19-.56-.2.56h.39Z"/>
    <path class="st1" d="M23.5,24.39s.02,0,.01.02l-.29.62v.39s0,.02-.02.02h-.02s-.02,0-.02-.02v-.39l-.3-.63s0-.02.01-.02h.03s.02,0,.02.01l.27.57h0l.26-.57s0-.01.02-.01h.02Z"/>
  </g>
  <g>
    <path class="st2" d="M3,12.18h-.93v3.86h.93c.61,0,.9-.34.9-.95v-1.95c0-.62-.3-.95-.9-.95ZM3.3,15.11c0,.28-.12.38-.31.38h-.31v-2.75h.31c.19,0,.31.1.31.37v2Z"/>
    <path class="st2" d="M5.87,12.18l-.63,3.86h.56l.11-.75h.69s.11.75.11.75h.61l-.63-3.86h-.82ZM5.99,14.76l.26-1.91h.01l.27,1.91h-.55Z"/>
    <path class="st2" d="M10.14,13.99h0c.27-.12.39-.37.39-.77v-.15c0-.59-.27-.89-.9-.89h-.91v3.86h.95c.61,0,.92-.32.92-.91v-.33c0-.41-.13-.69-.45-.8ZM9.32,12.73h.29c.21,0,.31.12.31.4v.21c0,.31-.14.41-.36.41h-.24v-1.02ZM9.99,15.11c0,.29-.11.38-.31.38h-.35v-1.18h.27c.28,0,.39.11.39.47v.34Z"/>
    <path class="st2" d="M13.47,13.99h0c.27-.12.39-.37.39-.77v-.15c0-.59-.27-.89-.9-.89h-.91v3.86h.95c.61,0,.92-.32.92-.91v-.33c0-.41-.13-.69-.45-.8ZM12.66,12.73h.29c.21,0,.31.12.31.4v.21c0,.31-.14.41-.36.41h-.24v-1.02ZM13.32,15.11c0,.29-.11.38-.31.38h-.35v-1.18h.27c.28,0,.39.11.39.47v.34Z"/>
    <polygon class="st2" points="15.38 16.04 17.03 16.04 17.03 15.49 15.99 15.49 15.99 14.3 16.82 14.3 16.82 13.75 15.99 13.75 15.99 12.73 17.03 12.73 17.03 12.18 15.38 12.18 15.38 16.04"/>
    <path class="st2" d="M20.29,14.89c0-.44-.1-.72-.4-.82h0c.27-.12.4-.37.4-.77v-.24c0-.59-.27-.89-.9-.89h-.9v3.86h.61v-1.65h.21c.28,0,.38.12.38.47v.71c0,.31.02.37.06.47h.62c-.06-.14-.07-.28-.07-.47v-.68ZM19.68,13.43c0,.31-.14.41-.36.41h-.22v-1.1h.28c.21,0,.31.12.31.4v.3Z"/>
    <polygon class="st2" points="22.41 12.18 21.81 12.18 21.81 16.04 23.41 16.04 23.41 15.49 22.41 15.49 22.41 12.18"/>
    <polygon class="st2" points="25.62 12.18 25.21 13.6 25.2 13.6 24.79 12.18 24.14 12.18 24.87 14.4 24.87 16.04 25.48 16.04 25.48 14.4 26.21 12.18 25.62 12.18"/>
  </g>
  <path class="st3" d="M7.92,20.15s-.06-.05-.04-.1l.05-.16c.02-.06.06-.08.12-.05l.32.12c.43.16.63.18.79.18h.12v.36h-.17c.06.07.08.15.08.22,0,.47-.77.75-1.54.75s-1.5-.26-1.5-1.12c0-.24.07-.52.2-.78.03-.06.06-.09.12-.06l.14.07c.05.03.07.05.04.12-.1.2-.15.44-.15.63,0,.57.45.79,1.15.79.75,0,1.19-.24,1.19-.45,0-.16-.23-.26-.55-.38l-.36-.13ZM7.22,22.15c0-.12.1-.2.22-.2s.22.08.22.2-.1.2-.22.2-.22-.08-.22-.2ZM7.79,22.15c0-.12.1-.2.22-.2s.22.08.22.2-.1.2-.22.2-.22-.08-.22-.2ZM9.53,20.13c.26,0,.31-.07.31-.33v-2.33c0-.06.01-.08.06-.09l.19-.03c.06,0,.08.02.08.08v2.57c0,.33-.18.5-.58.5h-.37c-.07,0-.13-.02-.13-.18s.07-.18.13-.18h.3ZM12.25,20.49h-.45c-.08.44-.31.69-.8.96-.05.03-.08.01-.11-.04l-.08-.15s0-.08.05-.11c.46-.27.63-.49.63-1.2v-1.17c0-.06.03-.09.08-.09h.17c.06,0,.09.03.09.09v1.35h.41v.36ZM12.91,20.13v.36h-.7c-.07,0-.13-.02-.13-.18s.07-.18.13-.18h.7ZM13.56,20.13v.36h-.7c-.07,0-.13-.02-.13-.18s.07-.18.13-.18h.7ZM14.22,20.13v.36h-.7c-.07,0-.13-.02-.13-.18s.07-.18.13-.18h.7ZM14.87,20.13v.36h-.7c-.07,0-.13-.02-.13-.18s.07-.18.13-.18h.7ZM15.53,20.13v.36h-.7c-.07,0-.13-.02-.13-.18s.07-.18.13-.18h.7ZM16.18,20.13v.36h-.7c-.07,0-.13-.02-.13-.18s.07-.18.13-.18h.7ZM16.84,20.13v.36h-.7c-.07,0-.13-.02-.13-.18s.07-.18.13-.18h.7ZM17.49,20.13v.36h-.7c-.07,0-.13-.02-.13-.18s.07-.18.13-.18h.7ZM18.15,20.13v.36h-.7c-.07,0-.13-.02-.13-.18s.07-.18.13-.18h.7ZM18.41,20.13c.25,0,.3-.07.3-.32v-1.03c0-.06.03-.09.08-.09h.17c.06,0,.09.03.09.09v1.2c0,.33-.18.51-.58.51h-.35c-.07,0-.13-.02-.13-.18s.07-.18.13-.18h.3ZM18.16,21.22c0-.12.1-.2.22-.2s.22.08.22.2-.1.2-.22.2-.22-.08-.22-.2ZM20.08,20.49c-.06,0-.09-.03-.09-.09v-.19c0-.06.03-.08.09-.08h1.16c.26,0,.31-.07.31-.32v-.2c0-.46-.18-.64-.71-.64-.12,0-.26,0-.42.03-.04,0-.05,0-.06,0-.06,0-.09-.02-.09-.08v-.16c0-.05.02-.07.07-.08.15-.04.34-.07.52-.07.65,0,1.04.23,1.04.96v.41c0,.33-.18.51-.58.51h-1.23Z"/>
  <g class="st4">
    <path class="st2" d="M16.55,6.61c.38.03.72.06,1.09.08.01,0,.02,0,.03,0,.17.04.24.22.12.34-.1.09-.24.17-.34.26-.05.05-.06.05-.08.12-.02.11-.05.4-.05.42-.01.07,0,.18-.07.23-.09.06-.2.04-.28-.05-.04-.05-.09-.12-.13-.17-.17-.25-.64-.88-.69-.98-.05-.11,0-.24.12-.26.07-.01.21,0,.28.01"/>
    <path class="st3" d="M17.54,4.56c-.27,0-.49.23-.5.51-.03.41-.1.86-.2,1.28.34.02.68.03,1.02.04.09-.42.15-.86.18-1.28.02-.3-.21-.55-.5-.55"/>
    <path class="st3" d="M16.33,7.62c-.09.14-.19.25-.3.33-.53.4-1.1.45-1.77.52-.18.02-.36.04-.54.06-1.59.22-1.89-.1-2.03-.25l-.02-.02c-.33-.36-.42-1.05-.47-1.68-.05-.7-.17-1.74-.26-2.48-.03-.23-.16-.43-.38-.57-.17-.11-.36-.17-.53-.17-.16,0-.34,0-.53.01-.21,0-1.28-.01-1.5-.01-.29,0-.51.25-.5.54.01.28.26.49.54.49.22,0,1.28.02,1.49.01,0,0,.02,0,.03,0,.24,0,.44.17.47.41.07.62.15,1.34.18,1.86.06.85.2,1.72.74,2.31l.02.02c.15.17.38.41.89.54.14-.43.54-.72.99-.68.41.04.74.34.84.72.05,0,.11-.01.16-.02.17-.02.33-.04.51-.06.16-.02.33-.03.49-.06.16-.38.54-.62.96-.59.16.01.31.07.44.16.12-.07.25-.14.37-.24.1-.08.2-.17.3-.28-.05-.07-.11-.16-.16-.23-.09-.15-.26-.4-.44-.66"/>
    <path class="st2" d="M11.74,7.19c.06.54.48.95.98.99.06,0,.11,0,.17,0,.74-.06,1.72-.15,2.23-.26.38-.08.69-.33.92-.73-.15-.22-.26-.39-.28-.45-.07-.17,0-.38.19-.42.1-.02.31,0,.42,0,0,0,.02,0,.03,0,.06-.23.11-.48.14-.75.13-1.3-.43-2.27-1.38-2.92-1.07-.74-2.97-.81-3.76-.62-.34.08-.13.4.05,2.31.09.96.21,2.11.3,2.85M12.35,2.84c1.49-.06,2.13.2,2.69.73.72.69.63,1.76.58,2.14-.11.8-.58.99-.86,1.06-.42.1-.96.11-1.34.11-.27,0-.7-.18-.74-.45-.17-.98-.37-2.72-.46-3.43,0-.08.05-.16.13-.16"/>
    <path class="st3" d="M13.44,9.89c-.03.38-.35.65-.72.62-.36-.03-.64-.36-.6-.74.03-.38.35-.65.72-.62.36.03.64.36.61.74"/>
    <path class="st3" d="M16.4,9.89c-.03.38-.35.65-.72.62-.36-.03-.64-.36-.6-.74.03-.38.35-.65.72-.62.36.03.64.36.61.74"/>
  </g>
  <g>
    <path class="st2" d="M18.34,8.06v-.06h.89v.06h-.41v1.1h-.07v-1.1h-.41Z"/>
    <path class="st2" d="M19.3,8h.1l.45,1.08h0l.45-1.08h.1v1.16h-.07v-1.07h0l-.44,1.07h-.07l-.45-1.07h0v1.07h-.07v-1.16Z"/>
  </g>
</svg>